<?xml version="1.0" encoding="utf-8"?>
<!-- Generator: Adobe Illustrator 21.0.0, SVG Export Plug-In . SVG Version: 6.00 Build 0)  -->
<svg version="1.1" id="Layer_1" xmlns="http://www.w3.org/2000/svg" xmlns:xlink="http://www.w3.org/1999/xlink" x="0px" y="0px"
	 viewBox="0 0 354.6 353.2" style="enable-background:new 0 0 354.6 353.2;" xml:space="preserve">
<style type="text/css">
	.st0{fill:url(#path9470_1_);fill-opacity:0.5;stroke:#000000;stroke-width:0.75;stroke-dasharray:4,2;}
	.st1{fill:url(#path9490_1_);fill-opacity:0.5;stroke:#000000;stroke-width:0.75;stroke-dasharray:4,2;}
	.st2{fill:url(#circle9492_1_);fill-opacity:0.5;stroke:#000000;stroke-width:0.75;stroke-dasharray:4,2;}
	.st3{fill:url(#circle9496_1_);fill-opacity:0.5;stroke:#000000;stroke-width:0.75;stroke-dasharray:4,2;}
	.st4{fill:url(#circle9500_1_);fill-opacity:0.5;stroke:#000000;stroke-width:0.75;stroke-dasharray:4,2;}
	.st5{fill:url(#circle9504_1_);fill-opacity:0.5;stroke:#000000;stroke-width:0.75;stroke-dasharray:4,2;}
	.st6{fill:url(#circle9508_1_);fill-opacity:0.5;stroke:#000000;stroke-width:0.75;stroke-dasharray:4,2;}
	.st7{fill:url(#circle9512_1_);fill-opacity:0.5;stroke:#000000;stroke-width:0.75;stroke-dasharray:4,2;}
	.st8{fill:url(#circle9516_1_);fill-opacity:0.5;stroke:#000000;stroke-width:0.75;stroke-dasharray:4,2;}
	.st9{fill:url(#circle9520_1_);fill-opacity:0.5;stroke:#000000;stroke-width:0.75;stroke-dasharray:4,2;}
	.st10{fill:url(#circle9524_1_);fill-opacity:0.5;stroke:#000000;stroke-width:0.75;stroke-dasharray:4,2;}
	.st11{fill:url(#circle9528_1_);fill-opacity:0.5;stroke:#000000;stroke-width:0.75;stroke-dasharray:4,2;}
	.st12{fill:url(#circle9530_1_);fill-opacity:0.5;stroke:#000000;stroke-width:0.75;stroke-dasharray:4,2;}
	.st13{fill:url(#circle9539_1_);fill-opacity:0.5;stroke:#000000;stroke-width:0.75;stroke-dasharray:4,2;}
	.st14{fill:url(#circle9548_1_);fill-opacity:0.5;stroke:#000000;stroke-width:0.75;stroke-dasharray:4,2;}
	.st15{fill:#800000;stroke:#000000;stroke-width:0.5;stroke-miterlimit:10;}
	.st16{fill:none;stroke:#800000;stroke-width:0.5;stroke-linejoin:round;stroke-miterlimit:10;}
	.st17{fill:#B36666;}
	.st18{fill:#D3A6A6;}
	.st19{fill:#800000;}
	.st20{fill:#FFFFFF;stroke:#000000;stroke-width:0.5;stroke-miterlimit:10;}
	.st21{fill:none;stroke:#000000;stroke-width:0.4925;stroke-linejoin:round;stroke-miterlimit:10;stroke-dasharray:1.4775,1.4775;}
	.st22{fill:url(#rect4273_1_);stroke:#000000;stroke-width:0.3694;}
	.st23{opacity:0.98;fill:url(#rect4291_1_);stroke:#000000;stroke-width:0.7508;enable-background:new    ;}
	.st24{display:none;}
	.st25{display:inline;}
	.st26{display:inline;enable-background:new    ;}
	.st27{display:inline;fill:#800000;}
	.st28{font-family:'Helvetica';}
	.st29{font-size:8.1133px;}
	.st30{font-family:'Palatino-Roman';}
	.st31{font-size:12px;}
	.st32{fill:#FFFFFF;}
	.st33{font-size:7.3714px;}
	.st34{font-size:6.996px;}
</style>
<g id="spheres">
	<g id="layer7" transform="translate(33.297185,8.4084075)">
		
			<radialGradient id="path9470_1_" cx="-36.4039" cy="158.9919" r="186.7723" gradientTransform="matrix(1 0 0 -1 33.2972 347.5916)" gradientUnits="userSpaceOnUse">
			<stop  offset="0" style="stop-color:#FFFFFF"/>
			<stop  offset="1" style="stop-color:#000000"/>
		</radialGradient>
		<path id="path9470" class="st0" d="M-3.2,31.7c86.4,0,156.4,70,156.4,156.4l0,0c0,86.4-70,156.4-156.4,156.4"/>
		
			<radialGradient id="path9490_1_" cx="95.153" cy="213.9916" r="28.149" gradientTransform="matrix(1 0 0 -1 33.2972 347.5916)" gradientUnits="userSpaceOnUse">
			<stop  offset="0" style="stop-color:#FFFFFF"/>
			<stop  offset="1" style="stop-color:#000000"/>
		</radialGradient>
		<circle id="path9490" class="st1" cx="143.3" cy="133.6" r="14.9"/>
		
			<radialGradient id="circle9492_1_" cx="110.6065" cy="203.0167" r="6.0685" gradientTransform="matrix(1 0 0 -1 33.2972 347.5916)" gradientUnits="userSpaceOnUse">
			<stop  offset="0" style="stop-color:#FFFFFF"/>
			<stop  offset="1" style="stop-color:#000000"/>
		</radialGradient>
		<circle id="circle9492" class="st2" cx="147.1" cy="144.6" r="3.2"/>
		
			<radialGradient id="circle9496_1_" cx="111.5332" cy="219.0645" r="22.9331" gradientTransform="matrix(1 0 0 -1 33.2972 347.5916)" gradientUnits="userSpaceOnUse">
			<stop  offset="0" style="stop-color:#FFFFFF"/>
			<stop  offset="1" style="stop-color:#000000"/>
		</radialGradient>
		<circle id="circle9496" class="st3" cx="157" cy="128.5" r="12.1"/>
		
			<radialGradient id="circle9500_1_" cx="124.6822" cy="223.3649" r="19.5294" gradientTransform="matrix(1 0 0 -1 33.2972 347.5916)" gradientUnits="userSpaceOnUse">
			<stop  offset="0" style="stop-color:#FFFFFF"/>
			<stop  offset="1" style="stop-color:#000000"/>
		</radialGradient>
		<circle id="circle9500" class="st4" cx="168.3" cy="124.2" r="10.3"/>
		
			<radialGradient id="circle9504_1_" cx="136.0074" cy="226.9916" r="16.4121" gradientTransform="matrix(1 0 0 -1 33.2972 347.5916)" gradientUnits="userSpaceOnUse">
			<stop  offset="0" style="stop-color:#FFFFFF"/>
			<stop  offset="1" style="stop-color:#000000"/>
		</radialGradient>
		<circle id="circle9504" class="st5" cx="178" cy="120.6" r="8.7"/>
		
			<radialGradient id="circle9508_1_" cx="145.4869" cy="230.0526" r="13.8565" gradientTransform="matrix(1 0 0 -1 33.2972 347.5916)" gradientUnits="userSpaceOnUse">
			<stop  offset="0" style="stop-color:#FFFFFF"/>
			<stop  offset="1" style="stop-color:#000000"/>
		</radialGradient>
		<circle id="circle9508" class="st6" cx="186.1" cy="117.5" r="7.3"/>
		
			<radialGradient id="circle9512_1_" cx="152.3524" cy="232.6272" r="13.8565" gradientTransform="matrix(1 0 0 -1 33.2972 347.5916)" gradientUnits="userSpaceOnUse">
			<stop  offset="0" style="stop-color:#FFFFFF"/>
			<stop  offset="1" style="stop-color:#000000"/>
		</radialGradient>
		<circle id="circle9512" class="st7" cx="193" cy="114.9" r="7.3"/>
		
			<radialGradient id="circle9516_1_" cx="154.1211" cy="235.1916" r="23.4976" gradientTransform="matrix(1 0 0 -1 33.2972 347.5916)" gradientUnits="userSpaceOnUse">
			<stop  offset="0" style="stop-color:#FFFFFF"/>
			<stop  offset="1" style="stop-color:#000000"/>
		</radialGradient>
		<circle id="circle9516" class="st8" cx="199.8" cy="112.4" r="12.4"/>
		
			<radialGradient id="circle9520_1_" cx="154.3719" cy="239.5117" r="45.0574" gradientTransform="matrix(1 0 0 -1 33.2972 347.5916)" gradientUnits="userSpaceOnUse">
			<stop  offset="0" style="stop-color:#FFFFFF"/>
			<stop  offset="1" style="stop-color:#000000"/>
		</radialGradient>
		<circle id="circle9520" class="st9" cx="211.5" cy="108" r="23.8"/>
		
			<radialGradient id="circle9524_1_" cx="154.0126" cy="247.8059" r="87.9787" gradientTransform="matrix(1 0 0 -1 33.2972 347.5916)" gradientUnits="userSpaceOnUse">
			<stop  offset="0" style="stop-color:#FFFFFF"/>
			<stop  offset="1" style="stop-color:#000000"/>
		</radialGradient>
		<circle id="circle9524" class="st10" cx="233.8" cy="99.6" r="46.6"/>
		
			<radialGradient id="circle9528_1_" cx="229.8277" cy="264.2627" r="27.0063" gradientTransform="matrix(1 0 0 -1 33.2972 347.5916)" gradientUnits="userSpaceOnUse">
			<stop  offset="0" style="stop-color:#FFFFFF"/>
			<stop  offset="1" style="stop-color:#000000"/>
		</radialGradient>
		<circle id="circle9528" class="st11" cx="277.4" cy="83.3" r="14.3"/>
		
			<radialGradient id="circle9530_1_" cx="112.7739" cy="184.6916" r="9.6171" gradientTransform="matrix(1 0 0 -1 33.2972 347.5916)" gradientUnits="userSpaceOnUse">
			<stop  offset="0" style="stop-color:#FFFFFF"/>
			<stop  offset="1" style="stop-color:#000000"/>
		</radialGradient>
		<circle id="circle9530" class="st12" cx="151.2" cy="162.9" r="5.1"/>
		
			<radialGradient id="circle9539_1_" cx="104.2202" cy="158.9153" r="29.3637" gradientTransform="matrix(1 0 0 -1 33.2972 347.5916)" gradientUnits="userSpaceOnUse">
			<stop  offset="0" style="stop-color:#FFFFFF"/>
			<stop  offset="1" style="stop-color:#000000"/>
		</radialGradient>
		<circle id="circle9539" class="st13" cx="153" cy="188.6" r="15.5"/>
		
			<radialGradient id="circle9548_1_" cx="132.8553" cy="158.96" r="4.5829" gradientTransform="matrix(1 0 0 -1 33.2972 347.5916)" gradientUnits="userSpaceOnUse">
			<stop  offset="0" style="stop-color:#FFFFFF"/>
			<stop  offset="1" style="stop-color:#000000"/>
		</radialGradient>
		<circle id="circle9548" class="st14" cx="168.6" cy="188.6" r="2.4"/>
	</g>
	<g id="layer4" transform="translate(27.167565,33.167368)">
		<circle id="path4271" class="st15" cx="3.2" cy="163.7" r="1.8"/>
	</g>
</g>
<g id="rays">
	<polyline class="st16" points="325.5,86.3 30.4,196.9 184.3,171.4 	"/>
	<polyline class="st16" points="201.8,197.1 30.4,196.9 180.3,153 	"/>
	<g id="arrows">
		<g>
			<g>
				<g>
					<path class="st17" d="M151.4,197c-1.8-1.2-3.2-2.8-4.4-4.5h8.4c1.1,1.9,2.9,3.4,4.7,4.5H151.4z"/>
					<path class="st18" d="M160.2,197c-1.9,1.1-3.6,2.7-4.7,4.6h-8.3c1.2-1.8,2.6-3.4,4.3-4.6H160.2z"/>
					<path class="st19" d="M155.9,192.5c1.1,1.9,2.9,3.4,4.7,4.5c-1.9,1.1-3.6,2.7-4.7,4.6h-1.1c1.2-1.8,2.6-3.4,4.3-4.6
						c-1.8-1.2-3.2-2.8-4.4-4.5H155.9z"/>
					<path class="st19" d="M153.2,192.5c1.1,1.9,2.9,3.4,4.7,4.5c-1.9,1.1-3.6,2.7-4.7,4.6h-1.1c1.2-1.8,2.6-3.4,4.3-4.6
						c-1.8-1.2-3.2-2.8-4.4-4.5H153.2z"/>
					<path class="st19" d="M150.5,192.5c1.1,1.9,2.9,3.4,4.7,4.5c-1.9,1.1-3.6,2.7-4.7,4.6h-1.1c1.2-1.8,2.6-3.4,4.3-4.6
						c-1.8-1.2-3.2-2.8-4.4-4.5H150.5z"/>
					<path class="st19" d="M147.8,192.5c1.1,1.9,2.9,3.4,4.7,4.5c-1.9,1.1-3.6,2.7-4.7,4.6h-1.1c1.2-1.8,2.6-3.4,4.3-4.6
						c-1.8-1.2-3.2-2.8-4.4-4.5H147.8z"/>
				</g>
			</g>
		</g>
		<g>
			<g>
				<g>
					<path class="st17" d="M151.4,177c-1.9-0.9-3.6-2.2-5-3.8l8.3-1.3c1.4,1.7,3.4,2.9,5.4,3.7L151.4,177z"/>
					<path class="st18" d="M160,175.6c-1.7,1.4-3.1,3.2-3.9,5.3l-8.2,1.3c0.9-2,2-3.7,3.6-5.2L160,175.6z"/>
					<path class="st19" d="M155.1,171.7c1.4,1.7,3.4,2.9,5.4,3.7c-1.7,1.4-3.1,3.2-3.9,5.3l-1.1,0.2c0.9-2,2-3.7,3.6-5.2
						c-1.9-0.9-3.6-2.2-5-3.8L155.1,171.7z"/>
					<path class="st19" d="M152.4,172.2c1.4,1.7,3.4,2.9,5.4,3.7c-1.7,1.4-3.1,3.2-3.9,5.3l-1.1,0.2c0.9-2,2-3.7,3.6-5.2
						c-1.9-0.9-3.6-2.2-5-3.8L152.4,172.2z"/>
					<path class="st19" d="M149.7,172.6c1.4,1.7,3.4,2.9,5.4,3.7c-1.7,1.4-3.1,3.2-3.9,5.3l-1.1,0.2c0.9-2,2-3.7,3.6-5.2
						c-1.9-0.9-3.6-2.2-5-3.8L149.7,172.6z"/>
					<path class="st19" d="M147.1,173c1.4,1.7,3.4,2.9,5.4,3.7c-1.7,1.4-3.1,3.2-3.9,5.3l-1.1,0.2c0.9-2,2-3.7,3.6-5.2
						c-1.9-0.9-3.6-2.2-5-3.8L147.1,173z"/>
				</g>
			</g>
		</g>
		<g>
			<g>
				<g>
					<path class="st17" d="M151.3,161.5c-2-0.6-3.9-1.7-5.5-3.1l8-2.4c1.6,1.5,3.7,2.4,5.9,3L151.3,161.5z"/>
					<path class="st18" d="M159.7,159c-1.5,1.6-2.6,3.6-3.2,5.7l-8,2.4c0.6-2.1,1.5-4,2.8-5.6L159.7,159z"/>
					<path class="st19" d="M154.3,155.9c1.6,1.5,3.7,2.4,5.9,3c-1.5,1.6-2.6,3.6-3.2,5.7l-1.1,0.3c0.6-2.1,1.5-4,2.8-5.6
						c-2-0.6-3.9-1.7-5.5-3.1L154.3,155.9z"/>
					<path class="st19" d="M151.7,156.7c1.6,1.5,3.7,2.4,5.8,3c-1.5,1.6-2.6,3.6-3.2,5.7l-1.1,0.3c0.6-2.1,1.5-4,2.8-5.6
						c-2-0.6-3.9-1.7-5.5-3.1L151.7,156.7z"/>
					<path class="st19" d="M149.1,157.5c1.6,1.5,3.7,2.4,5.8,3c-1.5,1.6-2.6,3.6-3.2,5.7l-1.1,0.3c0.6-2.1,1.5-4,2.8-5.6
						c-2-0.6-3.9-1.7-5.5-3.1L149.1,157.5z"/>
					<path class="st19" d="M146.5,158.2c1.6,1.5,3.7,2.4,5.8,3c-1.5,1.6-2.6,3.6-3.2,5.7l-1.1,0.3c0.6-2.1,1.5-4,2.8-5.6
						c-2-0.6-3.9-1.7-5.5-3.1L146.5,158.2z"/>
				</g>
			</g>
		</g>
		<g>
			<g>
				<g>
					<path class="st17" d="M151.3,151.7c-2.1-0.5-4-1.5-5.7-2.7l7.8-2.9c1.7,1.4,3.9,2.2,6,2.6L151.3,151.7z"/>
					<path class="st18" d="M159.5,148.7c-1.4,1.7-2.4,3.8-2.8,5.9l-7.8,2.9c0.5-2.1,1.2-4.1,2.5-5.8L159.5,148.7z"/>
					<path class="st19" d="M153.9,145.9c1.7,1.4,3.9,2.2,6,2.6c-1.4,1.7-2.4,3.8-2.8,5.9l-1.1,0.4c0.5-2.1,1.2-4.1,2.5-5.8
						c-2.1-0.5-4-1.5-5.7-2.7L153.9,145.9z"/>
					<path class="st19" d="M151.3,146.9c1.7,1.4,3.9,2.2,6,2.6c-1.4,1.7-2.4,3.8-2.8,5.9l-1.1,0.4c0.5-2.1,1.2-4.1,2.5-5.8
						c-2.1-0.5-4-1.5-5.7-2.7L151.3,146.9z"/>
					<path class="st19" d="M148.8,147.8c1.7,1.4,3.9,2.2,6,2.6c-1.4,1.7-2.4,3.8-2.8,5.9l-1.1,0.4c0.5-2.1,1.2-4.1,2.5-5.8
						c-2.1-0.5-4-1.5-5.7-2.7L148.8,147.8z"/>
					<path class="st19" d="M146.3,148.8c1.7,1.4,3.9,2.2,6,2.6c-1.4,1.7-2.4,3.8-2.8,5.9l-1.1,0.4c0.5-2.1,1.2-4.1,2.5-5.8
						c-2.1-0.5-4-1.5-5.7-2.7L146.3,148.8z"/>
				</g>
			</g>
		</g>
	</g>
</g>
<g id="sphere_centers">
	<g id="layer8" transform="translate(33.297185,8.4084075)">
		<circle id="path9473" class="st20" cx="143.3" cy="133.5" r="1.8"/>
		<circle id="circle9475" class="st20" cx="147" cy="144.6" r="1.8"/>
		<circle id="circle9477" class="st20" cx="151" cy="163" r="1.8"/>
		<circle id="circle9479" class="st20" cx="153" cy="188.7" r="1.8"/>
		<circle id="circle9494" class="st20" cx="157" cy="128.5" r="1.8"/>
		<circle id="circle9498" class="st20" cx="168.1" cy="124.2" r="1.8"/>
		<circle id="circle9502" class="st20" cx="177.9" cy="120.6" r="1.8"/>
		<circle id="circle9506" class="st20" cx="186.1" cy="117.5" r="1.8"/>
		<circle id="circle9510" class="st20" cx="192.9" cy="115" r="1.8"/>
		<circle id="circle9514" class="st20" cx="199.8" cy="112.4" r="1.8"/>
		<circle id="circle9518" class="st20" cx="211.4" cy="108" r="1.8"/>
		<circle id="circle9522" class="st20" cx="233.8" cy="99.7" r="1.8"/>
		<circle id="circle9526" class="st20" cx="277.4" cy="83.3" r="1.8"/>
		<circle id="circle9546" class="st20" cx="168.5" cy="188.7" r="1.8"/>
	</g>
</g>
<g id="svg4190" xmlns:cc="http://creativecommons.org/ns#" xmlns:dc="http://purl.org/dc/elements/1.1/" xmlns:rdf="http://www.w3.org/1999/02/22-rdf-syntax-ns#" xmlns:svg="http://www.w3.org/2000/svg">
	<path id="path4220_1_" class="st21" d="M325.5,239V2.6"/>
</g>
<g id="layer1" transform="translate(27.167565,33.167368)">
	
		<linearGradient id="rect4273_1_" gradientUnits="userSpaceOnUse" x1="162.9093" y1="324.6869" x2="213.0593" y2="324.6869" gradientTransform="matrix(1.2312 0 0 1.2312 16.9235 -237.1545)">
		<stop  offset="0" style="stop-color:#004455"/>
		<stop  offset="1" style="stop-color:#004455;stop-opacity:0"/>
	</linearGradient>
	<rect id="rect4273" x="217.7" y="150.3" class="st22" width="24.6" height="24.6"/>
	
		<linearGradient id="rect4291_1_" gradientUnits="userSpaceOnUse" x1="-48.1858" y1="323.9199" x2="11.0258" y2="323.9199" gradientTransform="matrix(1.0663 -0.6156 0.6156 1.0663 18.8538 -229.9963)">
		<stop  offset="0" style="stop-color:#FF6600"/>
		<stop  offset="1" style="stop-color:#FF6600;stop-opacity:0"/>
	</linearGradient>
	<polygon id="rect4291" class="st23" points="154.7,123.2 198,98.2 223.1,141.5 179.7,166.5 	"/>
</g>
<g id="layer5" transform="translate(33.297185,8.4084075)" class="st24">
	<g id="path4228" class="st25">
		<path class="st19" d="M49.5,184.6c0-1.1-1.7-1.1-1.7,0C47.9,185.7,49.5,185.7,49.5,184.6z"/>
	</g>
	<g id="path4230" class="st25">
		<path class="st19" d="M69.4,184.6c0-1.1-1.6-1.1-1.6,0C67.7,185.6,69.4,185.6,69.4,184.6z"/>
	</g>
	<g id="path4232" class="st25">
		<path class="st19" d="M59.4,184.6c0-1.1-1.7-1.1-1.7,0C57.8,185.7,59.4,185.7,59.4,184.6z"/>
	</g>
	<g id="path4234" class="st25">
		<path class="st19" d="M79.4,184.6c0-1.1-1.7-1.1-1.7,0C77.7,185.7,79.4,185.7,79.4,184.6z"/>
	</g>
	<g id="path4236" class="st25">
		<path class="st19" d="M89.4,184.6c0-1.1-1.7-1.1-1.7,0C87.8,185.7,89.4,185.7,89.4,184.6z"/>
	</g>
	<g id="path4238" class="st25">
		<path class="st19" d="M99.4,184.6c0-1.1-1.7-1.1-1.7,0C97.8,185.7,99.4,185.7,99.4,184.6z"/>
	</g>
	<g id="path4240" class="st25">
		<path class="st19" d="M109.3,184.5c0-1.1-1.6-1.1-1.6,0C107.7,185.6,109.3,185.6,109.3,184.5z"/>
	</g>
	<g id="path4242" class="st25">
		<path class="st19" d="M119.5,184.7c0-1.1-1.7-1.1-1.7,0C117.9,185.8,119.5,185.8,119.5,184.7z"/>
	</g>
	<g id="path4244" class="st25">
		<path class="st19" d="M129.4,184.6c0-1.1-1.6-1.1-1.6,0C127.7,185.7,129.4,185.7,129.4,184.6z"/>
	</g>
	<g id="path4246" class="st25">
		<path class="st19" d="M139.4,184.5c0-1.1-1.7-1.1-1.7,0C137.8,185.6,139.4,185.6,139.4,184.5z"/>
	</g>
	<g id="path4248" class="st25">
		<path class="st19" d="M149.4,184.5c0-1.1-1.7-1.1-1.7,0C147.8,185.6,149.4,185.6,149.4,184.5z"/>
	</g>
	<g id="path4250" class="st25">
		<path class="st19" d="M159.4,184.5c0-1.1-1.6-1.1-1.6,0C157.7,185.6,159.4,185.6,159.4,184.5z"/>
	</g>
	<g id="path4252" class="st25">
		<path class="st19" d="M179.4,184.5c0-1.1-1.6-1.1-1.6,0C177.8,185.6,179.4,185.6,179.4,184.5z"/>
	</g>
	<g id="path4254" class="st25">
		<path class="st19" d="M189.4,184.5c0-1.1-1.7-1.1-1.7,0S189.4,185.6,189.4,184.5z"/>
	</g>
	<g id="path4272" class="st25">
		<path class="st19" d="M49.8,180.5c0-1.1-1.7-1.1-1.7,0S49.8,181.6,49.8,180.5z"/>
	</g>
	<g id="path4274" class="st25">
		<path class="st19" d="M59.7,178.8c0-1.1-1.6-1.1-1.6,0C58.1,179.9,59.7,179.9,59.7,178.8z"/>
	</g>
	<g id="path4276" class="st25">
		<path class="st19" d="M69.8,177.3c0-1.1-1.6-1.1-1.6,0C68.2,178.4,69.8,178.4,69.8,177.3z"/>
	</g>
	<g id="path4278" class="st25">
		<path class="st19" d="M79.8,175.6c0-1.1-1.6-1.1-1.6,0C78.1,176.7,79.8,176.7,79.8,175.6z"/>
	</g>
	<g id="path4280" class="st25">
		<path class="st19" d="M89.7,173.9c0-1.1-1.7-1.1-1.7,0S89.7,175,89.7,173.9z"/>
	</g>
	<g id="path4282" class="st25">
		<path class="st19" d="M99.7,172.2c0-1.1-1.7-1.1-1.7,0C98.1,173.3,99.7,173.3,99.7,172.2z"/>
	</g>
	<g id="path4284" class="st25">
		<path class="st19" d="M109.7,170.5c0-1.1-1.6-1.1-1.6,0S109.7,171.6,109.7,170.5z"/>
	</g>
	<g id="path4286" class="st25">
		<path class="st19" d="M119.7,168.8c0-1.1-1.7-1.1-1.7,0C118.1,169.9,119.7,169.9,119.7,168.8z"/>
	</g>
	<g id="path4288" class="st25">
		<path class="st19" d="M129.7,167.2c0-1.1-1.7-1.1-1.7,0C128.1,168.3,129.7,168.3,129.7,167.2z"/>
	</g>
	<g id="path4290" class="st25">
		<path class="st19" d="M139.7,165.5c0-1.1-1.7-1.1-1.7,0C138.1,166.6,139.7,166.6,139.7,165.5z"/>
	</g>
	<g id="path4292" class="st25">
		<path class="st19" d="M149.8,164.1c0-1.1-1.6-1.1-1.6,0C148.1,165.2,149.8,165.2,149.8,164.1z"/>
	</g>
	<g id="path4294" class="st25">
		<path class="st19" d="M49.8,177.3c0-1.1-1.7-1.1-1.7,0C48.1,178.4,49.8,178.4,49.8,177.3z"/>
	</g>
	<g id="path4296" class="st25">
		<path class="st19" d="M59.7,174.4c0-1.1-1.6-1.1-1.6,0C58.1,175.5,59.7,175.5,59.7,174.4z"/>
	</g>
	<g id="path4298" class="st25">
		<path class="st19" d="M69.7,171.5c0-1.1-1.7-1.1-1.7,0C68.1,172.6,69.7,172.6,69.7,171.5z"/>
	</g>
	<g id="path4300" class="st25">
		<path class="st19" d="M79.7,168.6c0-1.1-1.7-1.1-1.7,0C78.1,169.7,79.7,169.7,79.7,168.6z"/>
	</g>
	<g id="path4302" class="st25">
		<path class="st19" d="M89.7,165.7c0-1.1-1.7-1.1-1.7,0C88.1,166.8,89.7,166.8,89.7,165.7z"/>
	</g>
	<g id="path4304" class="st25">
		<path class="st19" d="M99.7,162.8c0-1.1-1.6-1.1-1.6,0C98.1,163.9,99.7,163.9,99.7,162.8z"/>
	</g>
	<g id="path4306" class="st25">
		<path class="st19" d="M109.7,159.8c0-1.1-1.7-1.1-1.7,0C108.1,160.9,109.7,160.9,109.7,159.8z"/>
	</g>
	<g id="path4308" class="st25">
		<path class="st19" d="M119.7,156.9c0-1.1-1.6-1.1-1.6,0S119.7,158,119.7,156.9z"/>
	</g>
	<g id="path4310" class="st25">
		<path class="st19" d="M129.7,154c0-1.1-1.7-1.1-1.7,0C128.1,155.1,129.7,155.1,129.7,154z"/>
	</g>
	<g id="path4312" class="st25">
		<path class="st19" d="M139.8,151c0-1.1-1.6-1.1-1.6,0C138.1,152.1,139.8,152.1,139.8,151z"/>
	</g>
	<g id="path4314" class="st25">
		<path class="st19" d="M149.7,148.2c0-1.1-1.7-1.1-1.7,0C148.1,149.3,149.7,149.3,149.7,148.2z"/>
	</g>
	<g id="path4318" class="st25">
		<path class="st19" d="M49.8,175.6c0-1.1-1.7-1.1-1.7,0C48.1,176.7,49.8,176.7,49.8,175.6z"/>
	</g>
	<g id="path4320" class="st25">
		<path class="st19" d="M59.8,171.9c0-1.1-1.7-1.1-1.7,0S59.8,173,59.8,171.9z"/>
	</g>
	<g id="path4322" class="st25">
		<path class="st19" d="M69.7,168.1c0-1.1-1.7-1.1-1.7,0C68.1,169.2,69.7,169.2,69.7,168.1z"/>
	</g>
	<g id="path4324" class="st25">
		<path class="st19" d="M79.8,164.4c0-1.1-1.6-1.1-1.6,0C78.1,165.5,79.8,165.5,79.8,164.4z"/>
	</g>
	<g id="path4326" class="st25">
		<path class="st19" d="M89.7,160.7c0-1.1-1.6-1.1-1.6,0S89.7,161.8,89.7,160.7z"/>
	</g>
	<g id="path4328" class="st25">
		<path class="st19" d="M109.7,153.2c0-1.1-1.6-1.1-1.6,0S109.7,154.3,109.7,153.2z"/>
	</g>
	<g id="path4330" class="st25">
		<path class="st19" d="M99.7,156.9c0-1.1-1.6-1.1-1.6,0S99.7,158,99.7,156.9z"/>
	</g>
	<g id="path4332" class="st25">
		<path class="st19" d="M119.8,149.4c0-1.1-1.6-1.1-1.6,0C118.1,150.5,119.8,150.5,119.8,149.4z"/>
	</g>
	<g id="path4334" class="st25">
		<path class="st19" d="M129.8,145.7c0-1.1-1.6-1.1-1.6,0C128.1,146.8,129.8,146.8,129.8,145.7z"/>
	</g>
	<g id="path4336" class="st25">
		<path class="st19" d="M149.8,138.2c0-1.1-1.6-1.1-1.6,0S149.8,139.3,149.8,138.2z"/>
	</g>
	<g id="path4338" class="st25">
		<path class="st19" d="M159.8,134.5c0-1.1-1.7-1.1-1.7,0S159.8,135.6,159.8,134.5z"/>
	</g>
	<g id="path4340" class="st25">
		<path class="st19" d="M169.8,130.9c0-1.1-1.6-1.1-1.6,0C168.1,132,169.8,132,169.8,130.9z"/>
	</g>
	<g id="path4342" class="st25">
		<path class="st19" d="M179.7,127c0-1.1-1.6-1.1-1.6,0C178.1,128.1,179.7,128.1,179.7,127z"/>
	</g>
	<g id="path4344" class="st25">
		<path class="st19" d="M189.7,123.2c0-1.1-1.6-1.1-1.6,0C188.1,124.3,189.7,124.3,189.7,123.2z"/>
	</g>
	<g id="path4346" class="st25">
		<path class="st19" d="M199.8,119.5c0-1.1-1.6-1.1-1.6,0S199.8,120.6,199.8,119.5z"/>
	</g>
	<g id="path4348" class="st25">
		<path class="st19" d="M209.8,115.6c0-1.1-1.7-1.1-1.7,0S209.8,116.7,209.8,115.6z"/>
	</g>
	<g id="path4350" class="st25">
		<path class="st19" d="M219.7,111.9c0-1.1-1.7-1.1-1.7,0S219.7,113,219.7,111.9z"/>
	</g>
	<g id="path4352" class="st25">
		<path class="st19" d="M229.7,108.2c0-1.1-1.6-1.1-1.6,0S229.7,109.3,229.7,108.2z"/>
	</g>
	<g id="path4354" class="st25">
		<path class="st19" d="M239.7,104.5c0-1.1-1.7-1.1-1.7,0C238.1,105.6,239.7,105.6,239.7,104.5z"/>
	</g>
	<g id="path4356" class="st25">
		<path class="st19" d="M249.7,100.8c0-1.1-1.6-1.1-1.6,0S249.7,101.9,249.7,100.8z"/>
	</g>
	<g id="path4358" class="st25">
		<path class="st19" d="M259.7,97c0-1.1-1.7-1.1-1.7,0S259.7,98.1,259.7,97z"/>
	</g>
	<g id="path4362" class="st25">
		<path class="st19" d="M139.7,141.8c0-1.1-1.6-1.1-1.6,0C138.1,142.9,139.7,142.9,139.7,141.8z"/>
	</g>
	<g id="flowRoot4450" transform="translate(6.5991674,22.86327)" class="st26">
	</g>
	<text transform="matrix(1 0 0 1 196.1923 186.7415)" class="st27 st28 st29">x</text>
	<text transform="matrix(1 0 0 1 156.458 147.772)" class="st27 st28 st29">x</text>
	<g id="path4237" class="st25">
		<path class="st19" d="M159.6,162.4c0-1.1-1.6-1.1-1.6,0C157.9,163.5,159.6,163.5,159.6,162.4z"/>
	</g>
	<g id="path4239" class="st25">
		<path class="st19" d="M169.4,184.8c0-1.1-1.6-1.1-1.6,0S169.4,185.9,169.4,184.8z"/>
	</g>
	<g id="path4947" class="st25">
		<path class="st19" d="M169.7,160.8c0-1.1-1.6-1.1-1.6,0C168.1,161.9,169.7,161.9,169.7,160.8z"/>
	</g>
	<g id="path4950" class="st25">
		<path class="st19" d="M179.6,159.1c0-1.1-1.6-1.1-1.6,0C178,160.2,179.6,160.2,179.6,159.1z"/>
	</g>
	<g id="path4952" class="st25">
		<path class="st19" d="M189.5,157.4c0-1.1-1.6-1.1-1.6,0C187.8,158.5,189.5,158.5,189.5,157.4z"/>
	</g>
	<g id="path4954" class="st25">
		<path class="st19" d="M199.6,155.8c0-1.1-1.6-1.1-1.6,0C198,156.9,199.6,156.9,199.6,155.8z"/>
	</g>
	<g id="path4956" class="st25">
		<path class="st19" d="M209.9,153.9c0-1.1-1.6-1.1-1.6,0C208.2,155,209.9,155,209.9,153.9z"/>
	</g>
	<g id="path4958" class="st25">
		<path class="st19" d="M219.7,152.3c0-1.1-1.6-1.1-1.6,0C218.1,153.4,219.7,153.4,219.7,152.3z"/>
	</g>
	<g id="path4960" class="st25">
		<path class="st19" d="M229.9,150.6c0-1.1-1.6-1.1-1.6,0C228.2,151.7,229.9,151.7,229.9,150.6z"/>
	</g>
	<g id="path4962" class="st25">
		<path class="st19" d="M239.8,148.9c0-1.1-1.6-1.1-1.6,0C238.1,150,239.8,150,239.8,148.9z"/>
	</g>
	<g id="path4964" class="st25">
		<path class="st19" d="M249.6,147.3c0-1.1-1.6-1.1-1.6,0C247.9,148.4,249.6,148.4,249.6,147.3z"/>
	</g>
	<g id="path4966" class="st25">
		<path class="st19" d="M259.7,145.6c0-1.1-1.6-1.1-1.6,0C258.1,146.7,259.7,146.7,259.7,145.6z"/>
	</g>
</g>
<text transform="matrix(1 0 0 1 199.4047 180.9069)" class="st30 st31">Poly1</text>
<text transform="matrix(1 0 0 1 247.4633 192.0508)" class="st32 st30 st33">Poly2</text>
<text transform="matrix(1 0 0 1 327.6372 88.6758)" class="st30 st31">e</text>
<text transform="matrix(1 0 0 1 133.97 175.4638)" class="st30 st31">f</text>
<text transform="matrix(1 0 0 1 121.8533 188.0579)" class="st30 st31">g</text>
<text transform="matrix(1 0 0 1 108.293 209.7001)" class="st30 st31">h</text>
<text transform="matrix(1 0 0 1 281.3997 249.4654)" class="st30 st31">Horizon, d</text>
<text transform="matrix(1 0 0 1 338.3404 254.1545)" class="st30 st34">max</text>
<text transform="matrix(1 0 0 1 10.5328 210.7534)" class="st30 st31">Origin</text>
</svg>
